HIERARCHY
ROOT Hips
{
	OFFSET	0	0	0
	CHANNELS 6  Xposition Yposition Zposition Xrotation Yrotation Zrotation
	JOINT Spine
	{
		OFFSET	0	6.86795	1.37906
		CHANNELS 3  Xrotation Yrotation Zrotation
		JOINT Spine1
		{
			OFFSET	0	11.7606	-2.1001
			CHANNELS 3  Xrotation Yrotation Zrotation
			JOINT Spine2
			{
				OFFSET	0	8.91491	0.955545
				CHANNELS 3  Xrotation Yrotation Zrotation
				JOINT Spine3
				{
					OFFSET	0	10.6685	3.17115
					CHANNELS 3  Xrotation Yrotation Zrotation
					JOINT Spine4
					{
						OFFSET	0	15.7927	-1.61708
						CHANNELS 3  Xrotation Yrotation Zrotation
						JOINT Neck
						{
							OFFSET	0	7.53935	-5.28175
							CHANNELS 3  Xrotation Yrotation Zrotation
							JOINT Head
							{
								OFFSET	0	9.05142	-2.70913
								CHANNELS 3  Xrotation Yrotation Zrotation
								End Site
								{
									OFFSET	0	18.8799	-0.913543
								}
							}
						}
					}
					JOINT LeftShoulder
					{
						OFFSET	-4.53621	19.1949	-9.05142
						CHANNELS 3  Xrotation Yrotation Zrotation
						JOINT LeftArm
						{
							OFFSET	-9.8955	-2.70912	3.47568
							CHANNELS 3  Xrotation Yrotation Zrotation
							JOINT LeftForeArm
							{
								OFFSET	-33.3495	-1.52213	2.38045
								CHANNELS 3  Xrotation Yrotation Zrotation
								JOINT LeftHand
								{
									OFFSET	-27.054	-1.86958	1.93108
									CHANNELS 3  Xrotation Yrotation Zrotation
									End Site
									{
										OFFSET	-9.87335	-0.682306	0.704704
									}
								}
							}
						}
					}
					JOINT RightShoulder
					{
						OFFSET	4.53621	19.1949	-9.05142
						CHANNELS 3  Xrotation Yrotation Zrotation
						JOINT RightArm
						{
							OFFSET	9.8955	-2.70912	3.47568
							CHANNELS 3  Xrotation Yrotation Zrotation
							JOINT RightForeArm
							{
								OFFSET	33.3495	-1.52213	2.38045
								CHANNELS 3  Xrotation Yrotation Zrotation
								JOINT RightHand
								{
									OFFSET	27.054	-1.86958	1.93108
									CHANNELS 3  Xrotation Yrotation Zrotation
									End Site
									{
										OFFSET	9.87335	-0.682306	0.704704
									}
								}
							}
						}
					}
				}
			}
		}
	}
	JOINT LeftUpLeg
	{
		OFFSET	-9.35843	-3.43397	-0.689532
		CHANNELS 3  Xrotation Yrotation Zrotation
		JOINT LeftLeg
		{
			OFFSET	-2.06148	-40.3938	-0.631444
			CHANNELS 3  Xrotation Yrotation Zrotation
			JOINT LeftFoot
			{
				OFFSET	-2.01493	-37.1416	3.19418
				CHANNELS 3  Xrotation Yrotation Zrotation
				JOINT LeftToeBase
				{
					OFFSET	0	-4.59973	-12.2169
					CHANNELS 3  Xrotation Yrotation Zrotation
					End Site
					{
						OFFSET	0	-1.83989	-7.35956
					}
				}
			}
		}
	}
	JOINT RightUpLeg
	{
		OFFSET	9.35843	-3.43397	-0.689532
		CHANNELS 3  Xrotation Yrotation Zrotation
		JOINT RightLeg
		{
			OFFSET	2.06148	-40.3938	-0.631444
			CHANNELS 3  Xrotation Yrotation Zrotation
			JOINT RightFoot
			{
				OFFSET	2.01493	-37.1416	3.19418
				CHANNELS 3  Xrotation Yrotation Zrotation
				JOINT RightToeBase
				{
					OFFSET	0	-4.59973	-12.2169
					CHANNELS 3  Xrotation Yrotation Zrotation
					End Site
					{
						OFFSET	0	-1.83989	-7.35956
					}
				}
			}
		}
	}
}
MOTION
Frames: 10
Frame Time: 0.020408
 52.2728 88.354 -197.221 100.132 -70.0784 104.446 6.54234e-05 0.00221215 -1.694 172.879 179.996 177.177 172.647 179.987 177.177 174.557 179.998 178.306 179.249 179.993 179.435 4.69624 -6.66677 -2.47684 1.40397 -7.87673 -1.29283 176.743 -169.513 173.213 0.512367 -20.5327 85.9199 34.9588 -16.6777 9.44972 -0 -19.6858 2.54313 1.22532 19.7205 -2.63836 1.39691 25.6625 -60.3716 14.3912 15.9665 -2.24298 -0 22.7799 -10.5524 159.086 136.207 168.653 162.741 176.62 179.918 1.37667 0.0300249 10.0431 178.74 180 -180 163.12 -170.414 169.904 0.976315 9.74149 0.115416 173.271 -179.953 171.164 0.617524 0 0
 52.8683 88.5783 -197.034 102.376 -69.9206 106.224 0.000127839 0.00429458 -1.70505 172.922 179.991 177.158 172.737 179.974 177.158 174.722 179.996 178.295 178.945 179.99 179.432 3.79419 -6.21098 -2.03207 1.12796 -7.82324 -1.15939 176.771 -169.19 173.26 0.558861 -20.5408 86.1448 34.8065 -16.0399 9.03322 -0 -19.4321 2.35187 1.24026 19.7405 -2.67068 2.52304 26.2957 -60.5849 14.7319 18.2276 -2.96855 -0 22.6842 -10.6865 160.22 136.503 167.824 160.801 176.666 -179.994 179.601 179.976 -170.002 178.73 180 -180 162.923 -170.85 170.313 0.750315 10.6826 0.206871 173.028 -179.908 170.543 0.588957 0 0
 53.3526 88.818 -196.876 105.702 -69.6023 109.336 180 -180 178.288 172.933 -180 177.146 172.784 -180 177.146 174.842 -180 178.288 178.687 179.987 179.429 3.05882 -5.61072 -1.29541 0.901581 -7.79628 -0.941166 176.864 -168.593 173.437 0.714199 -20.7085 86.332 34.6584 -15.6191 8.54085 -0 -19.2346 2.28561 1.25605 19.766 -2.70488 2.98492 26.9672 -61.0459 15.0625 20.5009 -3.73404 -0 22.6623 -10.9877 161.487 136.867 167.27 159.204 176.714 -179.901 178.398 179.982 -169.984 178.721 180 -180 162.952 -171.261 170.73 0.505549 11.3919 0.11027 172.322 -179.971 169.99 0.563509 0 0
 53.6932 88.9632 -196.75 106.657 -69.6125 109.901 7.70555e-05 0.00255658 -1.72638 172.985 179.995 177.123 172.858 179.985 177.123 174.942 179.997 178.274 178.551 179.985 179.425 2.62796 -5.14153 -0.689709 0.769582 -7.75803 -0.761057 176.857 -168.03 173.403 0.667131 -20.9761 86.1232 34.5863 -15.4781 8.47778 -0 -19.1556 2.34064 1.27622 20.0219 -2.74996 3.19822 27.7432 -61.4175 15.3568 22.6194 -4.44822 -0 22.6627 -11.3797 163.23 137.068 166.286 157.929 176.773 -179.846 177.498 179.99 -169.945 178.714 180 -180 163.061 -171.576 171.244 0.39573 11.7559 0.0488334 172.259 -179.99 169.547 0.541798 0 0
 54.2213 89.0417 -196.387 107.324 -69.5693 110.037 180 -180 178.285 173.031 -179.999 177.142 172.925 -179.997 177.142 175.037 -180 178.285 178.418 179.984 179.429 2.20175 -4.84516 -0.331768 0.640573 -7.7101 -0.656208 176.812 -167.508 173.292 0.543548 -21.2528 85.5467 34.5693 -15.6801 8.59744 -0 -19.1708 2.44987 1.24152 20.3554 -2.67709 3.31251 28.4597 -61.6426 15.6658 24.6248 -4.94118 -0 22.6728 -11.7362 165.572 137.595 164.995 156.727 176.87 -179.759 176.76 179.999 -169.886 178.707 180 -180 163.031 -171.99 171.692 0.31098 12.0352 0.0385395 172.512 -179.98 169.171 0.522603 0 0
 54.1966 89.0387 -196.416 108.362 -69.7363 110.799 180 -179.997 178.287 173.082 -179.993 177.145 172.991 -179.98 177.145 175.118 -179.997 178.287 178.323 179.983 179.429 1.8785 -4.58885 -0.127752 0.543791 -7.53752 -0.587523 177.051 -166.59 173.771 1.61541 -21.3943 84.4755 34.5007 -15.7475 8.42104 -0 -19.1056 2.44206 1.19355 20.6742 -2.57532 3.26964 29.1018 -61.5193 16.0624 26.4451 -5.54346 -0 22.5916 -11.9076 167.97 137.755 164.122 154.991 176.692 -179.712 176.865 179.972 -169.782 178.701 180 -180 163.294 -171.983 172.092 0.378468 12.2752 -0.0697176 172.819 -179.982 169 0.505155 0 0
 54.2634 89.0183 -196.31 108.65 -69.9939 110.7 180 -179.999 178.263 173.144 -179.998 177.105 173.062 -179.994 177.105 175.186 -179.999 178.263 178.282 179.983 179.421 1.69895 -4.39109 0.0486209 0.490258 -7.41481 -0.528663 177.262 -165.726 174.198 1.79971 -21.8699 83.6417 34.3155 -15.725 8.48745 -0 -18.9278 2.51717 1.06393 21.7022 -2.29998 3.23207 29.9687 -61.2423 16.3712 28.0427 -6.11021 -0 22.2948 -12.133 170.881 138.457 163.067 153.509 176.644 179.851 176.444 -179.994 -169.729 178.712 180 -180 163.436 -171.934 172.477 0.439224 12.4956 -0.313688 173.281 -179.962 168.88 0.490273 0 0
 54.2717 89.0865 -196.406 111.64 -70.1636 113.59 180 -179.985 178.213 173.187 -179.97 177.022 173.072 -179.909 177.022 175.124 -179.985 178.213 178.509 179.984 179.405 2.30171 -4.1731 0.225531 0.673215 -7.19984 -0.450186 177.476 -164.539 174.628 1.3893 -22.5876 82.8085 34.1171 -16.036 8.5496 -0 -18.7053 2.80425 0.899553 22.8459 -1.94798 2.90934 31.1926 -60.9823 16.5838 29.9504 -6.73328 -0 22.0159 -12.7928 173.354 139.506 162.518 151.881 176.632 179.671 175.736 180 -169.698 178.722 180 -180 163.601 -172.002 172.831 1.0963 12.783 -0.320095 172.936 179.983 168.746 0.476982 0 0
 54.6909 89.202 -196.218 113.602 -70.5249 115.476 180 -179.994 178.151 173.249 -179.987 176.919 173.078 -179.962 176.919 174.992 -179.994 178.151 178.933 179.989 179.384 3.45898 -4.25143 0.178357 1.02216 -7.18976 -0.445578 177.831 -163.487 175.368 1.00578 -23.1447 81.6087 33.9338 -16.3033 8.57148 -0 -18.3205 2.97511 0.741624 24.1265 -1.60836 2.11614 32.2859 -60.6518 16.6438 31.8664 -7.13721 -0 21.7628 -13.6962 175.495 141.195 162.09 150.572 176.887 179.578 174.9 179.967 -169.747 178.731 180 -180 163.767 -171.996 172.82 1.95244 13.0584 -0.202036 172.223 179.973 168.788 0.465311 0 0
 54.4809 89.2608 -196.194 111.361 -71.4494 113.198 180 -179.995 178.117 173.264 -179.99 176.862 173.073 -179.971 176.862 174.94 -179.995 178.117 179.083 179.99 179.372 3.8716 -4.30591 -0.0328377 1.14727 -7.00255 -0.491037 178.252 -163.198 176.266 0.448963 -23.5112 80.5 33.8808 -16.9159 8.95589 -0 -18.0551 3.15432 0.451399 24.5864 -0.979295 1.86663 33.0343 -60.223 16.6697 33.314 -7.39738 -0 21.5636 -14.3541 177.804 143.21 161.911 149.928 177.139 179.635 175.178 179.968 -169.741 178.74 180 -180 164.045 -171.873 172.597 2.64995 13.1133 -0.00214889 171.554 -179.95 169.051 0.454496 0 0
